<?xml version="1.0" standalone="no"?>
<!DOCTYPE svg PUBLIC "-//W3C//DTD SVG 20010904//EN"
 "http://www.w3.org/TR/2001/REC-SVG-20010904/DTD/svg10.dtd">
<svg version="1.0" xmlns="http://www.w3.org/2000/svg"
 width="590.000000pt" height="590.000000pt" viewBox="0 0 590.000000 590.000000"
 preserveAspectRatio="xMidYMid meet">
<metadata>
Created by potrace 1.11, written by Peter Selinger 2001-2013
</metadata>
<g transform="translate(0.000000,590.000000) scale(0.100000,-0.100000)"
fill="#000000" stroke="none">
<path d="M232 5883 c-65 -23 -153 -110 -188 -185 l-29 -63 0 -2685 0 -2685 27
-57 c33 -72 103 -147 165 -178 l48 -25 2695 0 2695 0 48 25 c62 31 132 106
165 178 l27 57 0 2685 0 2685 -33 67 c-21 43 -51 84 -87 116 -99 90 192 82
-2819 81 -2364 0 -2676 -2 -2714 -16z m3725 -403 c366 -28 692 -160 957 -385
298 -255 534 -736 565 -1153 11 -140 1 -315 -30 -502 -88 -545 -457 -985
-1004 -1198 -169 -65 -329 -101 -532 -117 l-83 -7 0 434 0 435 82 12 c287 44
512 201 628 437 55 112 73 195 73 334 1 122 -17 209 -69 349 -99 264 -332 452
-607 490 -112 16 -2286 15 -2359 0 -161 -35 -258 -134 -287 -293 -8 -42 -11
-633 -11 -1983 l0 -1923 -435 0 -436 0 3 1988 c4 2206 -1 2054 69 2267 72 217
240 442 429 574 175 123 421 214 648 241 97 11 2254 11 2399 0z m-1481 -1556
l221 -7 7 -466 c4 -256 10 -469 12 -473 3 -4 189 -8 415 -8 l409 0 0 -415 0
-415 -396 0 c-253 0 -402 -4 -415 -10 -18 -10 -19 -26 -19 -433 0 -316 3 -426
12 -435 9 -9 298 -12 1240 -12 l1228 0 0 -405 0 -405 -1537 2 -1538 3 -40 22
c-52 28 -128 103 -151 150 -18 36 -19 77 -22 767 -2 513 -6 733 -13 743 -9 10
-48 13 -155 13 l-144 0 0 415 0 414 153 3 152 3 3 484 2 484 178 -7 c97 -3
276 -9 398 -12z m3312 -3379 c-3 -227 -4 -243 -27 -292 -28 -64 -95 -128 -147
-142 -25 -7 -153 -10 -344 -9 -168 1 -287 3 -265 5 30 3 50 14 80 43 29 28 52
40 85 45 124 20 202 75 234 167 10 29 23 57 27 62 5 6 9 26 9 46 0 32 14 49
170 205 160 160 170 172 172 210 5 100 9 -123 6 -340z"/>
</g>
</svg>
